<?xml version="1.0" encoding="utf-8"?>
<!-- Generator: Adobe Illustrator 19.0.0, SVG Export Plug-In . SVG Version: 6.00 Build 0)  -->
<svg version="1.2" baseProfile="tiny" xmlns="http://www.w3.org/2000/svg" xmlns:xlink="http://www.w3.org/1999/xlink" x="0px"
	 y="0px" viewBox="974 84 2560 627" xml:space="preserve">
<g id="Layer_2" display="none">
</g>
<g id="Layer_1">
	<image display="none" width="2560" height="626" xlink:href="D416438B.png"  transform="matrix(1 0 0 1 974 84)">
	</image>
	<rect x="974" y="84" display="none" fill="#5865F2" width="2560" height="626"/>
	<path fill="#7289DA" d="M3381.1,710c-228-127.1-254.4-184-485.1-43.1c-261.9-168-360.9-131.1-642,44.1
		c-140.5-137.3-194.4-174.7-259.5-88.8c-160.3-186.7-248.4-247.8-382.7-85.2c-14.6,17.6-33.9,30.6-55.6,37.5
		c-21.8,6.9-45,7.4-67.1,1.5c-161.5-39.4-253.1,63-371.7,138L3381.1,710z"/>
	<path fill="#808AFF" d="M3340.4,679.4c-4-3.5-10.2-5.3-17.6-5.3c-6.3,0.1-12.5,1.1-18.5,3l-4,1.3c0.1-2.9-0.2-5.8-1-8.6
		c-2.2-8.8-8-16-16.7-20.9c-13-7.4-31.3-8.6-48.8-3.3c-3.4,1-6.8,2.3-10,3.8c-1.5-4.9-3.6-9.5-6.2-13.9
		c-15.7-26.4-48.3-41.9-72.7-34.5c-10.4,3.1-18.2,10.2-21.9,19.8c-4.8,12.4-2.7,27.7,5.9,42.1c12.7,21.5,37.1,36.3,59.5,36.4
		c0.2,1.3,0.4,2.6,0.7,3.8c0.6,2.4,1.5,4.7,2.7,6.9h2.3c-1.4-2.3-2.4-4.8-3-7.4c-0.4-1.4-0.6-2.9-0.8-4.4c0-0.2-0.1-0.5-0.3-0.6
		c-0.2-0.2-0.4-0.3-0.7-0.3h-0.7c-21.8,0-45.6-14.5-58-35.4c-8.2-13.9-10.3-28.6-5.8-40.4c3.5-9,10.9-15.6,20.7-18.6
		c23.5-7.1,55.1,8,70.4,33.6c2.7,4.6,4.8,9.5,6.3,14.6c0.1,0.3,0.3,0.5,0.6,0.6c0.3,0.1,0.5,0.1,0.8,0c3.5-1.7,7.1-3.1,10.8-4.2
		c17-5.1,34.6-4,47.2,3.1c8.2,4.7,13.7,11.5,15.8,19.7c0.8,3.1,1.1,6.3,0.8,9.5c0,0.3,0.2,0.7,0.4,0.9c0.1,0.1,0.3,0.2,0.5,0.2
		c0.2,0,0.4,0,0.5-0.1l5.3-1.8c14.6-4.4,27.7-3.7,34.2,1.9c3.5,2.9,4.9,7,4.2,11.8s-4,11.6-9.1,17.3h2.6c4.7-5.6,7.8-11.5,8.5-17
		S3344.4,682.7,3340.4,679.4z"/>
	<path fill="#7289DA" d="M1015.9,434.3c87.3-44,149-9.9,149-9.9c43.2-13.4,81.2-4,100.9,11.3c12.2,9.6-15.2,7.9-76.7,7.9h-170.9
		c-1.3,0-2.5-0.5-3.5-1.4c-0.9-0.9-1.4-2.2-1.4-3.5c0-0.9,0.3-1.8,0.7-2.5C1014.5,435.4,1015.1,434.7,1015.9,434.3z"/>
	<path fill="#7289DA" d="M1789.5,276.3c22.1-11.2,37.7-2.5,37.7-2.5c10.9-3.4,20.6-1,25.5,2.8c3.1,2.5-3.8,2-19.4,2H1790
		c-0.3,0-0.6-0.1-0.8-0.4s-0.4-0.5-0.4-0.8c0-0.2,0.1-0.5,0.2-0.7C1789.1,276.6,1789.3,276.4,1789.5,276.3z"/>
	<path fill="#7289DA" d="M3396.1,296.5c-0.1-8.7-3.3-17-8.9-23.7c-5.6-6.6-13.4-11.1-21.9-12.6c-8.5-1.5-17.4-0.1-24.9,4.2
		c-7.6,4.2-13.5,11-16.6,19c-2.8-0.6-5.6-0.9-8.5-0.9c-5.7,0-11.4,1.2-16.6,3.6c-5.2,2.4-9.8,6-13.5,10.4H3396.1z"/>
	<path fill="#7289DA" d="M1387,294.1c-6,0-11.9,1.5-17.2,4.2c-5.3,2.8-9.9,6.8-13.3,11.8c-13.3-6.1-28.2-8.2-42.7-6.1
		c-14.5,2.1-28.1,8.3-39.2,17.9h148.3c-2.1-7.9-6.7-15-13.2-20C1403.2,296.9,1395.2,294.1,1387,294.1z"/>
	<path fill="#7289DA" d="M3139.6,367.5c2.5,0,5-0.5,7.3-1.5c2.3-1,4.3-2.6,5.9-4.5c1.6-1.9,2.8-4.2,3.4-6.6c0.6-2.4,0.7-5,0.3-7.4
		c-4.8-25.8-17.9-49.4-37.2-67.2c-19.4-17.8-44-28.7-70.2-31.3c-26.2-2.5-52.4,3.5-74.9,17.2s-39.8,34.4-49.4,58.8
		c-8.9-1.9-18.1-2.9-27.2-2.9c-17.6,0-35,3.6-51,10.7s-30.5,17.4-42.4,30.4c-0.3,0.4-0.5,0.8-0.6,1.3c-0.1,0.5,0,1,0.2,1.4
		c0.2,0.5,0.5,0.8,0.9,1.1c0.4,0.3,0.9,0.4,1.4,0.4H3139.6z"/>
	<path fill="#808AFF" d="M2694.6,709.4h-2c0.8-22.6-3.4-37.3-12.9-44.8s-25.4-8-47.7-1.1c-0.3,0.1-0.6,0-0.8-0.1
		c-0.3-0.2-0.4-0.4-0.5-0.7c-0.6-4-2.3-7.8-4.8-11c-2.5-3.2-5.8-5.7-9.6-7.2c-9.6-3.9-21.5-1.7-31.7,5.8
		c-24.8,18.1-22.1,50.5-22.1,50.8c0,0.2-0.1,0.4-0.2,0.6c-0.1,0.2-0.3,0.3-0.4,0.4c-0.2,0.1-0.4,0.1-0.6,0.1c-0.2,0-0.4-0.1-0.5-0.3
		c-12.9-11.5-21.9-16-29.2-14.7c-7.3,1.3-13.9,9.1-21.4,22.2h-2.3c8.1-14.2,14.7-22.7,23.3-24.2c8.6-1.5,16.7,2.9,29.2,13.7
		c-0.1-8,1.3-34.3,23-50.2c10.8-7.9,23.4-10.2,33.6-6c3.9,1.5,7.4,4,10.1,7.3c2.7,3.2,4.6,7.1,5.4,11.2c22.4-6.7,38.2-6.1,48.4,1.9
		C2691.1,671.1,2695.4,686.1,2694.6,709.4z"/>
	<path fill="#91FFAD" d="M1570.5,359.9c-1.6-1-2.9-2.3-3.9-3.9c-1-1.6-1.6-3.3-1.9-5.1l-1-6.4c0-0.1-0.1-0.3-0.2-0.4
		c-0.1-0.1-0.2-0.1-0.4-0.1c-0.1,0-0.3,0-0.4,0.1c-0.1,0.1-0.2,0.2-0.2,0.4l-1,6.4c-0.3,1.8-0.9,3.6-1.9,5.1c-1,1.6-2.3,2.9-3.9,3.9
		l-0.8,0.5c-0.1,0-0.2,0.1-0.2,0.2c-0.1,0.1-0.1,0.2-0.1,0.3c0,0.1,0,0.2,0.1,0.3c0.1,0.1,0.1,0.2,0.2,0.2l0.8,0.5
		c1.5,1,2.9,2.4,3.9,3.9c1,1.6,1.7,3.3,1.9,5.2l1,6.3c0,0.1,0.1,0.3,0.2,0.4c0.1,0.1,0.2,0.1,0.4,0.1c0.1,0,0.3,0,0.4-0.1
		c0.1-0.1,0.2-0.2,0.2-0.4l1-6.3c0.3-1.8,0.9-3.6,1.9-5.2c1-1.6,2.3-2.9,3.9-3.9l0.8-0.5c0.1,0,0.2-0.1,0.2-0.2
		c0.1-0.1,0.1-0.2,0.1-0.3c0-0.1,0-0.2-0.1-0.3s-0.1-0.2-0.2-0.2L1570.5,359.9z"/>
	<path fill="#3F99F2" d="M2666.1,261.1c-2.7-1.7-4.9-4-6.6-6.6c-1.7-2.7-2.8-5.6-3.3-8.8l-1.6-10.8c-0.1-0.2-0.2-0.5-0.4-0.6
		s-0.4-0.3-0.7-0.3c-0.3,0-0.5,0.1-0.7,0.2c-0.2,0.2-0.3,0.4-0.4,0.7l-1.6,10.8c-0.5,3.1-1.6,6.1-3.3,8.8c-1.7,2.7-4,4.9-6.7,6.6
		l-1.4,0.9c-0.1,0.1-0.3,0.2-0.3,0.4c-0.1,0.2-0.1,0.3-0.2,0.5c0,0.2,0.1,0.4,0.1,0.5c0.1,0.2,0.2,0.3,0.4,0.4l1.4,0.9
		c2.7,1.7,4.9,4,6.7,6.7c1.7,2.7,2.9,5.7,3.3,8.8l1.6,10.8c0.1,0.3,0.2,0.5,0.4,0.7c0.2,0.2,0.5,0.3,0.7,0.2c0.3,0,0.5-0.1,0.7-0.3
		c0.2-0.2,0.3-0.4,0.4-0.6l1.6-10.8c0.5-3.1,1.6-6.1,3.3-8.8c1.7-2.7,4-5,6.6-6.7l1.5-0.9c0.1-0.1,0.3-0.2,0.3-0.4
		c0.1-0.2,0.1-0.3,0.1-0.5c0-0.2,0-0.3-0.1-0.5c-0.1-0.2-0.2-0.3-0.3-0.4L2666.1,261.1z"/>
	<path fill="#404EED" d="M3157.7,494.1c-2.1-1.4-4-3.2-5.3-5.4c-1.4-2.2-2.3-4.6-2.7-7.1l-1.4-8.7c0-0.2-0.1-0.4-0.2-0.6
		c-0.2-0.2-0.4-0.2-0.6-0.2c-0.2,0-0.4,0.1-0.6,0.2c-0.2,0.1-0.3,0.4-0.3,0.6l-1.3,8.7c-0.4,2.5-1.3,5-2.7,7.1
		c-1.4,2.2-3.2,4-5.4,5.4l-1.1,0.7c-0.1,0.1-0.2,0.2-0.3,0.3c-0.1,0.1-0.1,0.3-0.1,0.4c0,0.1,0,0.3,0.1,0.4c0.1,0.1,0.2,0.2,0.3,0.3
		l1.1,0.7c2.2,1.4,4,3.2,5.4,5.4c1.4,2.2,2.3,4.6,2.7,7.1l1.3,8.7c0,0.2,0.1,0.4,0.3,0.6c0.2,0.1,0.4,0.2,0.6,0.2
		c0.2,0,0.4-0.1,0.6-0.2c0.1-0.2,0.2-0.4,0.2-0.6l1.4-8.7c0.4-2.5,1.3-4.9,2.7-7.1c1.4-2.2,3.2-4,5.3-5.4l1.1-0.7
		c0.1-0.1,0.2-0.2,0.3-0.3c0.1-0.1,0.1-0.3,0.1-0.4c0-0.1,0-0.3-0.1-0.4c-0.1-0.1-0.2-0.2-0.3-0.3L3157.7,494.1z"/>
	<path fill="#FF78B9" d="M1874.9,497.7c-0.8-0.5-1.5-1.2-2-2c-0.5-0.8-0.9-1.7-1-2.7l-0.5-3.2c0-0.1,0-0.2-0.1-0.2
		c-0.1-0.1-0.1-0.1-0.2-0.1c-0.1,0-0.2,0-0.2,0.1c-0.1,0.1-0.1,0.1-0.1,0.2l-0.5,3.2c-0.1,1-0.5,1.9-1,2.7c-0.5,0.8-1.2,1.5-2,2
		l-0.5,0.3c-0.1,0-0.1,0.2-0.1,0.3c0,0.1,0,0.1,0,0.2c0,0.1,0,0.1,0.1,0.1l0.5,0.2c0.8,0.5,1.5,1.2,2,2c0.5,0.8,0.9,1.7,1,2.7
		l0.5,3.3c0,0.1,0,0.2,0.1,0.2c0.1,0.1,0.1,0.1,0.2,0.1c0.1,0,0.2,0,0.2-0.1c0.1-0.1,0.1-0.1,0.1-0.2l0.5-3.3c0.2-0.9,0.5-1.8,1-2.7
		c0.5-0.8,1.2-1.5,2-2l0.5-0.2c0,0,0.1-0.1,0.1-0.1c0-0.1,0-0.1,0-0.2c0-0.1,0-0.3-0.1-0.3L1874.9,497.7z"/>
	<path fill="#FFC619" d="M1922.3,624.4c-0.9-0.3-1.7-0.8-2.4-1.3c-0.6-0.5-1-1.1-1.2-1.8l-0.5-2.3h-0.7l-0.7,2.3
		c-0.2,0.6-0.5,1.2-1.1,1.8c-0.6,0.5-1.3,1-2.3,1.3l-0.4,0.3c-0.1,0-0.1,0-0.2,0c0,0-0.1,0.1-0.1,0.1c0,0,0,0.1,0.1,0.1
		c0,0,0.1,0,0.2,0l0.4,0.3c0.9,0.3,1.7,0.8,2.3,1.3c0.6,0.5,1,1.1,1.1,1.8l0.7,2.3h0.7l0.5-2.3c0.2-0.6,0.6-1.2,1.2-1.8
		c0.6-0.5,1.4-1,2.4-1.3l0.5-0.3L1922.3,624.4z"/>
	<path fill="#91FFAD" d="M2339.8,616.6c-0.9-0.6-1.7-1.4-2.2-2.3c-0.6-0.9-1-1.9-1.2-3l-0.5-3.6c0-0.2-0.2-0.3-0.4-0.3
		c0,0-0.1,0-0.1,0c0,0-0.1,0-0.1,0.1c0,0-0.1,0.1-0.1,0.1c0,0,0,0.1,0,0.1l-0.6,3.6c-0.1,1.1-0.5,2.1-1.1,3
		c-0.6,0.9-1.3,1.7-2.2,2.3l-0.5,0.3c-0.1,0-0.2,0.1-0.2,0.3c0,0.1,0.1,0.2,0.2,0.3l0.5,0.3c0.9,0.6,1.6,1.4,2.2,2.3
		c0.6,0.9,0.9,1.9,1.1,2.9l0.6,3.6c0,0.1,0,0.2,0.1,0.2c0,0.1,0.1,0.1,0.2,0.1c0.2,0,0.4-0.1,0.4-0.3l0.5-3.6c0.2-1,0.6-2,1.2-2.9
		c0.6-0.9,1.3-1.7,2.2-2.3l0.5-0.3c0,0,0.1-0.1,0.1-0.1c0-0.1,0-0.1,0-0.2c0-0.2,0-0.3-0.1-0.3L2339.8,616.6z"/>
	<path fill="#FF78B9" d="M1304.1,593c-1-0.7-1.8-1.5-2.4-2.5c-0.6-1-1-2.1-1.2-3.2l-0.6-4c-0.1-0.2-0.2-0.4-0.4-0.4
		c-0.1,0-0.2,0-0.3,0.1c-0.1,0.1-0.1,0.2-0.1,0.3l-0.6,4c-0.2,1.2-0.6,2.3-1.3,3.2c-0.6,1-1.5,1.8-2.4,2.5l-0.6,0.3
		c-0.1,0.1-0.1,0.2-0.1,0.4c0,0.1,0,0.3,0.1,0.3l0.6,0.4c1,0.6,1.8,1.5,2.5,2.5c0.6,1,1.1,2.1,1.2,3.2l0.6,4c0,0.2,0.2,0.3,0.4,0.3
		s0.3-0.1,0.4-0.3l0.6-4c0.2-1.2,0.6-2.3,1.2-3.2c0.6-1,1.4-1.8,2.4-2.5l0.6-0.4c0.1,0,0.2-0.2,0.2-0.3c0-0.1,0-0.2-0.1-0.2
		c0-0.1-0.1-0.1-0.1-0.2L1304.1,593z"/>
</g>
</svg>
