<?xml version="1.0" encoding="UTF-8"?>
<svg id="Layer_1" data-name="Layer 1" xmlns="http://www.w3.org/2000/svg" xmlns:xlink="http://www.w3.org/1999/xlink" viewBox="0 0 584.22 339.54">
  <defs>
    <style>
      .cls-1 {
        fill: url(#linear-gradient-2);
      }

      .cls-2 {
        fill: #fff;
      }

      .cls-3 {
        fill: #e6a08c;
      }

      .cls-4 {
        fill: #3471ab;
      }

      .cls-5 {
        fill: url(#linear-gradient-6);
      }

      .cls-6 {
        fill: #f9de86;
      }

      .cls-7 {
        fill: #164e7c;
      }

      .cls-8 {
        fill: #4c92c3;
      }

      .cls-9 {
        fill: #9ab3d9;
      }

      .cls-10 {
        fill: url(#linear-gradient-5);
      }

      .cls-11 {
        clip-path: url(#clippath);
      }

      .cls-12 {
        fill: none;
      }

      .cls-13 {
        fill: url(#linear-gradient-7);
      }

      .cls-14 {
        fill: #cebcc9;
      }

      .cls-15 {
        fill: url(#linear-gradient-3);
      }

      .cls-16 {
        fill: url(#linear-gradient);
      }

      .cls-17 {
        fill: url(#linear-gradient-4);
      }
    </style>
    <linearGradient id="linear-gradient" x1="409.88" y1="328" x2="409.88" y2="8" gradientUnits="userSpaceOnUse">
      <stop offset=".62" stop-color="#f9de86"/>
      <stop offset=".9" stop-color="#e6a08c"/>
    </linearGradient>
    <clipPath id="clippath">
      <path class="cls-12" d="M255.31,114.27l12.98-9.32L396,13.29c9.96-7.15,23.38-7.03,33.23,.25l123.56,91.41,11.97,8.86c9.89,7.33,13.91,20.22,9.89,31.85l-56.25,163.32c-3.92,11.39-14.64,19.03-26.68,19.03l-170.63-.02c-12.43,0-23.38-8.14-26.98-20.02l-49.35-162.58c-3.51-11.55,.74-24.05,10.54-31.11Z"/>
    </clipPath>
    <linearGradient id="linear-gradient-2" x1="522.4" y1="160.29" x2="522.4" y2="111.73" gradientUnits="userSpaceOnUse">
      <stop offset="0" stop-color="#fff"/>
      <stop offset=".07" stop-color="#e8edf6"/>
      <stop offset=".18" stop-color="#cbd8eb"/>
      <stop offset=".3" stop-color="#b5c7e3"/>
      <stop offset=".43" stop-color="#a6bcdd"/>
      <stop offset=".57" stop-color="#9cb5da"/>
      <stop offset=".78" stop-color="#9ab3d9"/>
    </linearGradient>
    <linearGradient id="linear-gradient-3" x1="285.68" y1="237.71" x2="285.68" y2="112" gradientUnits="userSpaceOnUse">
      <stop offset=".36" stop-color="#9ab3d9"/>
      <stop offset=".38" stop-color="#97b1d8"/>
      <stop offset=".8" stop-color="#619ac8"/>
      <stop offset="1" stop-color="#4c92c3"/>
    </linearGradient>
    <linearGradient id="linear-gradient-4" x1="408.27" y1="250.15" x2="408.27" y2="101.95" gradientUnits="userSpaceOnUse">
      <stop offset=".21" stop-color="#9ab3d9"/>
      <stop offset=".34" stop-color="#7fa7d1"/>
      <stop offset=".51" stop-color="#639bc9"/>
      <stop offset=".67" stop-color="#5294c4"/>
      <stop offset=".78" stop-color="#4c92c3"/>
    </linearGradient>
    <linearGradient id="linear-gradient-5" x1="446.18" y1="247.65" x2="446.18" y2="141.61" gradientUnits="userSpaceOnUse">
      <stop offset=".05" stop-color="#9ab3d9"/>
      <stop offset=".82" stop-color="#3e83ad"/>
    </linearGradient>
    <linearGradient id="linear-gradient-6" x1="487.23" y1="258.78" x2="487.23" y2="152.83" gradientUnits="userSpaceOnUse">
      <stop offset=".02" stop-color="#9ab3d9"/>
      <stop offset=".1" stop-color="#89aad1"/>
      <stop offset=".41" stop-color="#538eb7"/>
      <stop offset=".56" stop-color="#3e83ad"/>
    </linearGradient>
    <linearGradient id="linear-gradient-7" x1="406.11" y1="339.54" x2="406.11" y2="224.66" gradientUnits="userSpaceOnUse">
      <stop offset=".14" stop-color="#164e7c"/>
      <stop offset=".75" stop-color="#3471ab"/>
    </linearGradient>
  </defs>
  <path class="cls-16" d="M255.31,114.27l12.98-9.32L396,13.29c9.96-7.15,23.38-7.03,33.23,.25l123.56,91.41,11.97,8.86c9.89,7.33,13.91,20.22,9.89,31.85l-56.25,163.32c-3.92,11.39-14.64,19.03-26.68,19.03l-170.63-.02c-12.43,0-23.38-8.14-26.98-20.02l-49.35-162.58c-3.51-11.55,.74-24.05,10.54-31.11Z"/>
  <g class="cls-11">
    <g id="copy">
      <path class="cls-7" d="M144.19,178.71c-.33,3.44-2.11,6.67-5.04,8.77l-5.63,4.04H10.15l-5.19-3.84c-4.29-3.18-6.03-8.77-4.29-13.81,.55-.5,1.09-.95,1.48-1.33,1.01-1,2.77-1.42,3.87-.51,.59,.5,.88,1.26,1.14,1.99,.79,2.18,1.58,4.36,2.37,6.53,1.24-1.77,2.48-3.55,3.73-5.33,.26,2.38,4.11,3.22,5.33,1.16,1.79,1.58,3.28,3.5,4.37,5.63,4.32-2.39,7.72-6.4,9.37-11.05,1.95,3.55,3.9,7.1,5.85,10.66,1.91-2.32,3.81-4.64,5.72-6.96,1.59,1.58,3.19,3.15,4.78,4.73,.29,.28,.61,.58,1.01,.67,1.4,.29,1.84-2,3.12-2.66,1.28-.67,2.67,.55,3.83,1.42,1.15,.87,3.33,1.09,3.58-.34,.68,1.11,1.35,2.22,2.03,3.33,2.66-3.88,4.61-8.24,5.71-12.81,1.61,3.46,3.21,6.92,4.82,10.37,1.23-1.71,2.82-3.17,4.62-4.27,.81,1.1,1.63,2.19,2.44,3.29,.32,.42,.71,.89,1.25,.92,.55,.03,.99-.42,1.43-.75,1.72-1.27,4.49-.74,5.61,1.08,.8-.74,1.6-1.49,2.41-2.23,.67,1.39,2.12,3.03,3.42,2.19,.33-.22,.55-.56,.84-.82,.96-.81,2.5-.5,3.42,.34,.93,.84,1.4,2.06,1.83,3.24,.27-1.46,2.3-2.22,3.46-1.3,.51,.4,.97,1.09,1.61,.97,.48-.09,.75-.59,.95-1.03,1.67-3.8,3.35-7.6,5.03-11.39,2.38,4.37,4.52,8.87,6.41,13.48,.49-2.41,1.53-4.71,3.02-6.67,1.35,.98,2.4,2.37,2.99,3.93,.8,.19,1.04-1.08,1.68-1.61,.65-.53,1.65-.17,2.3,.36,.65,.54,1.22,1.25,2.04,1.46,.81,.21,1.89-.55,1.54-1.31,.96,.34,1.92,.68,2.88,1.02,.36-1.74,2.87-2.58,4.2-1.39,.63-1.15,1.25-2.29,1.87-3.44,1.47,1.2,2.62,2.79,3.28,4.56,.18-.5,.49-.94,.88-1.29Z"/>
      <path d="M130.41,192.52l-52.85,37.94c-1.92,1.38-4.18,2.11-6.54,2.11s-4.74-.76-6.69-2.21L13.18,192.52h117.23m3.11-1H10.15l53.58,39.64c2.16,1.6,4.72,2.4,7.28,2.4s4.99-.76,7.13-2.29l55.38-39.75h0Z"/>
      <path class="cls-4" d="M144.19,178.71c-.39,.35-.7,.79-.88,1.29-.66-1.77-1.81-3.36-3.28-4.56-.62,1.15-1.24,2.29-1.87,3.44-1.33-1.19-3.84-.35-4.2,1.39-.96-.34-1.92-.68-2.88-1.02,.35,.76-.73,1.52-1.54,1.31-.82-.21-1.39-.92-2.04-1.46-.65-.53-1.65-.89-2.3-.36-.64,.53-.88,1.8-1.68,1.61-.59-1.56-1.64-2.95-2.99-3.93-1.49,1.96-2.53,4.26-3.02,6.67-1.89-4.61-4.03-9.11-6.41-13.48-1.68,3.79-3.36,7.59-5.03,11.39-.2,.44-.47,.94-.95,1.03-.64,.12-1.1-.57-1.61-.97-1.16-.92-3.19-.16-3.46,1.3-.43-1.18-.9-2.4-1.83-3.24-.92-.84-2.46-1.15-3.42-.34-.29,.26-.51,.6-.84,.82-1.3,.84-2.75-.8-3.42-2.19-.81,.74-1.61,1.49-2.41,2.23-1.12-1.82-3.89-2.35-5.61-1.08-.44,.33-.88,.78-1.43,.75-.54-.03-.93-.5-1.25-.92-.81-1.1-1.63-2.19-2.44-3.29-1.8,1.1-3.39,2.56-4.62,4.27-1.61-3.45-3.21-6.91-4.82-10.37-1.1,4.57-3.05,8.93-5.71,12.81-.68-1.11-1.35-2.22-2.03-3.33-.25,1.43-2.43,1.21-3.58,.34-1.16-.87-2.55-2.09-3.83-1.42-1.28,.66-1.72,2.95-3.12,2.66-.4-.09-.72-.39-1.01-.67-1.59-1.58-3.19-3.15-4.78-4.73-1.91,2.32-3.81,4.64-5.72,6.96-1.95-3.56-3.9-7.11-5.85-10.66-1.65,4.65-5.05,8.66-9.37,11.05-1.09-2.13-2.58-4.05-4.37-5.63-1.22,2.06-5.07,1.22-5.33-1.16-1.25,1.78-2.49,3.56-3.73,5.33-.79-2.17-1.58-4.35-2.37-6.53-.26-.73-.55-1.49-1.14-1.99-1.1-.91-2.86-.49-3.87,.51-.39,.38-.93,.83-1.48,1.33l6.22-18.06c6.51-4.8,13.41-9.08,20.6-12.79,1.77-.91,3.65-1.81,5.64-1.77,1.76,.03,3.42,.79,5.01,1.54,6.75,3.17,13.49,6.34,20.24,9.5,8.27,3.89,16.54,7.78,24.81,11.66,1.47,.7,2.98,1.4,4.6,1.6,7.93,.99,13.33-9.87,21.32-9.58,2.98,.1,5.65,1.8,8.14,3.44,2.6,1.71,5.21,3.42,7.81,5.13,1.17,.77,2.42,1.56,3.81,1.56,1.46,0,2.76-.87,3.95-1.7,2.2-1.53,4.39-3.07,6.59-4.6l4.31,14.19c.47,1.56,.62,3.16,.47,4.72Z"/>
      <path class="cls-8" d="M139.41,159.8c-2.2,1.53-4.39,3.07-6.59,4.6-1.19,.83-2.49,1.7-3.95,1.7s-2.64-.79-3.81-1.56c-2.6-1.71-5.21-3.42-7.81-5.13-2.49-1.64-5.16-3.34-8.14-3.44-7.99-.29-13.39,10.57-21.32,9.58-1.62-.2-3.13-.9-4.6-1.6-8.27-3.88-16.54-7.77-24.81-11.66,7.07,.25,14.27-2.59,20.86-5.58,8.22-3.73,16.89-7.87,25.85-6.77,4.19,.52,8.14,2.17,12.13,3.53,6.01,2.06,12.23,3.5,18.54,4.31l3.65,12.02Z"/>
      <path class="cls-9" d="M135.76,147.78c-6.31-.81-12.53-2.25-18.54-4.31-3.99-1.36-7.94-3.01-12.13-3.53-8.96-1.1-17.63,3.04-25.85,6.77-6.59,2.99-13.79,5.83-20.86,5.58-6.75-3.16-13.49-6.33-20.24-9.5-1.59-.75-3.25-1.51-5.01-1.54-1.99-.04-3.87,.86-5.64,1.77-7.19,3.71-14.09,7.99-20.6,12.79l14.7-42.69c2.98,3.01,6.08,5.89,9.29,8.66,3.14,2.7,6.39,5.29,9.73,7.74,2.86,2.09,6.72,4.15,9.73,2.28,1.7-1.06,2.91-3.28,4.91-3.21,.88,.03,1.66,.52,2.39,1,2.61,1.71,5.25,3.5,8.27,4.25,4.09,1.02,8.4,.04,12.36-1.38,3.96-1.42,7.79-3.29,11.92-4.12,3.7-.75,7.58-.63,11.23,.34,3.25,.87,6.42,2.41,9.78,2.23,1.96-.11,3.83-.81,5.74-1.23,4.2-.92,8.76-.56,12.76-1.88l6.06,19.98Z"/>
      <path class="cls-14" d="M129.7,127.8c-4,1.32-8.56,.96-12.76,1.88-1.91,.42-3.78,1.12-5.74,1.23-3.36,.18-6.53-1.36-9.78-2.23-3.65-.97-7.53-1.09-11.23-.34-4.13,.83-7.96,2.7-11.92,4.12-3.96,1.42-8.27,2.4-12.36,1.38-3.02-.75-5.66-2.54-8.27-4.25-.73-.48-1.51-.97-2.39-1-2-.07-3.21,2.15-4.91,3.21-3.01,1.87-6.87-.19-9.73-2.28-3.34-2.45-6.59-5.04-9.73-7.74,2.71-.02,5.51-.7,8.04-1.7,4.9-1.94,9.41-4.93,14.54-6.18,3.26-.8,6.66-.86,10.02-.92,5.9-.1,11.8-.21,17.71-.31,4.6-.08,9.28-.15,13.71,1.11,3.99,1.13,7.61,3.3,11.55,4.57,6.66,2.14,13.71,1.6,20.77,1.28l2.48,8.17Z"/>
      <path class="cls-3" d="M122.62,104.49H24.56l.5-1.44c1.7-4.94,6.35-8.25,11.57-8.25H110.62c5.39,.01,10.14,3.54,11.7,8.69l.3,1Z"/>
      <path class="cls-6" d="M127.22,119.63c-7.06,.32-14.11,.86-20.77-1.28-3.94-1.27-7.56-3.44-11.55-4.57-4.43-1.26-9.11-1.19-13.71-1.11-5.91,.1-11.81,.21-17.71,.31-3.36,.06-6.76,.12-10.02,.92-5.13,1.25-9.64,4.24-14.54,6.18-2.53,1-5.33,1.68-8.04,1.7-3.21-2.77-6.31-5.65-9.29-8.66l2.97-8.63H122.62l4.6,15.14Z"/>
      <path d="M133.52,191.52l-55.38,39.75c-4.32,3.1-10.14,3.05-14.41-.11L10.15,191.52h123.37Z"/>
    </g>
    <path class="cls-14" d="M293.7,122.64c25.95,.94,52.81-.47,76.26-11.61,4.89-2.32,9.81-5.11,15.22-5.3,3.84-.14,7.57,1.05,11.27,2.07,25.61,7.04,53.38,6.02,78.41-2.87,6.38-2.26,12.75-5.06,19.51-5.29,4.31-.15,8.6,.76,12.92,.77,3.54,0,7.16-.59,10.59,.32,2.86,.76,5.38,2.52,8.25,3.24,7.61,1.92,15.2-3.77,23.04-3.5,5.43,.19,10.37,3.24,14.36,6.92,10.88,10.03,16.36,25.61,14.14,40.24-2,13.19-9.61,24.74-17.06,35.81-2,2.96-4.11,6.04-7.24,7.76-3.1,1.71-6.79,1.86-10.33,1.97-96.13,2.89-192.49-1.94-287.87-14.29-3.21-.42-6.67-.96-8.97-3.24-1.58-1.57-2.37-3.74-3.02-5.87-3.84-12.69-5.97-35.87,2.75-47.37,4.33-5.71,12.98-2.27,19.32-1.65,9.46,.92,18.96,1.56,28.46,1.91Z"/>
    <path class="cls-1" d="M488.36,113.43c.84-.71,1.71-1.51,2.8-1.67,1.6-.24,3.03,.93,4.24,2,4.4,3.85,9.92,7.47,15.67,6.43,6.4-1.17,11.67-7.92,18.01-6.47,3.81,.87,6.3,4.46,9.62,6.53,3.96,2.47,8.97,2.64,13.54,1.73s8.88-2.81,13.3-4.27c.65-.21,1.35-.42,2.01-.24,.79,.22,1.32,.94,1.78,1.62,4.06,6,7.66,12.62,8.26,19.85,.6,7.22-2.46,15.14-8.9,18.47-3.07,1.59-6.6,2.02-10.05,2.31-23.65,1.98-47.4-1.48-70.71-5.95-4.32-.83-8.86-1.8-12.16-4.71-3.72-3.28-5.17-8.37-6.43-13.16-1.29-4.87-4.78-12.06,1.04-15.12s12.68-2.05,17.97-7.34Z"/>
    <path class="cls-15" d="M275.4,111.26c.66-.06,1.34-.11,1.97,.11,1.45,.52,1.99,2.24,2.44,3.72,3.88,12.92,14.25,22.69,24.2,31.8,3.34,3.06,6.67,6.11,10.01,9.17,1.22,1.11,2.43,2.23,3.65,3.34,5.37,4.91,11.01,10.3,12.56,17.4,.82,3.75,.38,7.76-1.23,11.25-.89,1.92-2.12,3.68-2.89,5.65-1.34,3.43-1.22,7.23-1.12,10.91,.22,8.39,.18,16.79-.11,25.17-.09,2.44-.45,5.32-2.59,6.49-1.04,.57-2.28,.58-3.47,.59-12.71,.02-25.41,.05-38.12,.07-2.19,0-4.44,0-6.5-.75-1.72-.63-3.22-1.75-4.6-2.95-7.85-6.83-12.61-16.5-16.35-26.2-8.03-20.82-12.29-43.1-12.51-65.41-.06-5.68,.17-11.47,2.03-16.84,5.19-15,19.39-12.35,32.63-13.5Z"/>
    <path class="cls-17" d="M315.27,210.56c8.92-20.02,17.84-40.03,26.76-60.05,6.56,1.96,12.85,4.83,18.62,8.52,1.62-4.11,3.24-8.21,4.86-12.32,.46-1.17,.98-2.41,2.01-3.14,1.86-1.31,4.4-.39,6.68-.43,5.59-.09,9.2-5.94,10.83-11.28s2.71-11.42,7.15-14.82c2.99-2.29,6.9-2.84,10.48-3.99,6.01-1.94,11.28-5.68,17.16-7.97,10.37-4.03,21.89-3.3,32.99-2.52,1.5,.11,3.05,.23,4.38,.92,2.52,1.32,3.59,4.28,4.89,6.81,4.89,9.5,15,14.85,23.57,21.22,7.93,5.9,14.91,13.08,20.57,21.18-23.5,2.49-47.06,9.23-66.1,23.23-9.35,6.89-17.42,15.37-26.52,22.58-15.44,12.23-33.57,20.56-49.81,31.71-11.52,7.91-22.74,17.51-36.54,19.68-5,.79-11.3-.22-13.1-4.95-.95-2.48-.33-5.24-.39-7.89-.13-4.79-3.74-6.22-3.45-11.36s2.87-10.47,4.96-15.15Z"/>
    <path class="cls-10" d="M362.77,201.2c.26-1.36,.56-2.77,1.37-3.89,.89-1.23,2.29-1.96,3.64-2.64,9.71-4.81,20.15-8.61,28.31-15.73,7.65-6.67,12.78-15.89,15.84-25.57,.64-2.01,1.23-4.13,2.66-5.68,2.63-2.84,7.04-2.81,10.92-2.77,21.99,.28,44.03-5.53,65.79-2.38,13.61,1.97,26.44,7.37,39.11,12.72,.74,.31,1.57,.73,1.76,1.5,.16,.64-.18,1.29-.18,1.95s.77,1.37,1.24,.92c-24.72,34.27-63.83,54.49-98.26,78.98-3.82,2.72-7.65,5.53-12.04,7.19-7.87,2.97-16.68,1.9-24.85-.12s-16.17-4.98-24.55-5.71c-2.82-.25-5.71-.24-8.4-1.13-7.23-2.37-6.13-7.9-5.62-13.99,.66-7.94,1.75-15.85,3.25-23.67Z"/>
    <path class="cls-5" d="M438.33,225.45c11.73-10.38,14.68-27.9,25.67-39.05,5.58-5.66,12.85-9.28,20.05-12.64,29.73-13.88,62.6-25.2,94.89-19.34-13.53,28.41-24.59,58.01-33,88.33-.55,1.98-1.13,4.05-2.51,5.58-2.9,3.22-7.95,2.84-12.26,2.35-36.27-4.08-72.71,3.14-108.94,7.53-6.79,.82-14.31,1.37-19.84-2.66-9.41-6.85-9.62-17.55,2.39-19.07,11.99-1.52,24.06-2.61,33.56-11.02Z"/>
    <path class="cls-13" d="M541.85,271.63c-2.18,10.92-5.34,21.75-10.62,31.61-10.41,19.43-28.1,30.55-49.67,33.73-23.29,3.43-47.59,1.87-71.07,2.05-13.3,.1-26.59,.2-39.89,.3-12.74,.1-25.69,.81-38.35-.98-10.48-1.48-20.63-5.06-28.78-11.99-8.52-7.26-12.76-18.24-17.24-28.19-4.82-10.69-9.18-21.65-10.99-33.31-1.44-9.27-1.79-18.7-4.24-27.73-3.59-.75-4.37-5.3-2.39-7.97,.11-4.01,6.28-5.57,9.13-2.21,12.91-.66,25.83-1.33,38.74-1.99,5.99-.31,11.92-1.01,17.34,2.11,5.21,3.01,7.84,7.35,14.49,5.42,5.88-1.7,10.94-5.28,17.01-6.51,5.93-1.2,12.18-1.04,18,.66,12.19,3.56,20.76,13.98,33.59,16.08,11.53,1.89,22.55-3.75,34.04-2.37,5.18,.62,9.35,2.79,13.44,5.92,4.77,3.66,8.08,5.43,14.12,3.35,6.3-2.17,12.19-5.3,18.6-7.27,5.3-1.63,10.72-2.83,16.2-3.64,8.8-1.31,21.66-3.74,28.08,4.31,6.12,7.66,2.17,20.05,.46,28.62Z"/>
    <g>
      <path class="cls-7" d="M528.36,126.46s-4.9,40.43-14.7,47.49c-9.8,7.05-6.94,5.17-6.94,5.17,0,0,7.08,2.03,12.46-1.41,6.42-4.1,3.71,17.56,3.71,17.56,0,0-10.45,22.64-20.45,26.16,0,0,15.72,1.65,18.79-5.64,0,0-13.27,24.92-22.46,28.91,0,0,14.09,3.29,18.17-4.7,0,0-15.32,26.8-23.28,28.44,0,0,20.62-3.53,24.3-10.81,3.68-7.29-1.63,29.62-23.08,39.73l-9.19,7.05,82.7-.24s-27.36-16.46-31.24-26.8c0,0,12.66,7.99,18.99,7.52,0,0-17.56-14.34-18.58-21.63-1.02-7.29-.82,.24-.61,.94,.2,.71,16.54,12.46,24.3,7.99,0,0-24.5-16.93-25.53-25.15,0,0,15.93,11.05,21.65,6.11,0,0-17.77-12.46-18.79-21.16l-2.45-13.4s5.72,7.76,10.62,6.35c0,0-13.54-15.43-14.15-21.31-.46,.87-3.95-25.77-3.52-34.01,0,0,10.53,13,13.39,9.24,0,0-9.19-1.88-14.09-52.42Z"/>
      <path class="cls-7" d="M494.35,198.35s2.61,22.7,7.82,26.65c5.22,3.96,3.69,2.9,3.69,2.9,0,0-4.02,1.58-6.63-.79-2.61-2.38,2.39,7.13,5.32,8.97,2.93,1.85,4.02,2.9,4.02,2.9l-10.54-2.38s4.78,13.06,10.11,15.04c0,0-8.37,.92-10-3.17,0,0,7.06,13.99,11.95,16.23,0,0-7.5,1.85-9.67-2.64,0,0,8.15,15.04,12.39,15.97,0,0-10.98-1.98-12.93-6.07-1.96-4.09,.87,16.63,12.28,22.3l4.89,3.96-44.01-.13s14.56-9.24,16.63-15.04c0,0-6.74,4.49-10.11,4.22,0,0,9.35-8.05,9.89-12.14,.54-4.09,.43,.13,.33,.53-.11,.4-8.8,6.99-12.93,4.49,0,0,13.04-9.5,13.58-14.12,0,0-8.48,6.2-11.52,3.43,0,0,9.45-6.99,10-11.88l1.3-7.52s-3.04,4.35-5.65,3.56c0,0,5.22-6.73,5.54-10.03,0,0-4.56,3.3-5.76,0,0,0,5.87-3.96,6.09-6.86,0,0-4.35,3.17-6.3,1.58,0,0,5.76-6.86,6.52-9.5,0,0-2.28,1.06-3.8-1.06,0,0,4.89-1.06,7.5-29.42Z"/>
      <path class="cls-7" d="M284.89,121.78s4.61,37.93,13.82,44.55c9.21,6.62,6.52,4.85,6.52,4.85,0,0-7.1,2.65-11.71-1.32-4.61-3.97,4.22,11.91,9.4,15,5.18,3.09,7.1,4.85,7.1,4.85l-18.61-3.97s8.44,21.83,17.85,25.14c0,0-14.78,1.54-17.65-5.29,0,0,12.47,23.38,21.11,27.12,0,0-13.24,3.09-17.08-4.41,0,0,14.39,25.14,21.88,26.68,0,0-19.38-3.31-22.84-10.14-3.45-6.84,1.54,27.79,21.68,37.27l8.64,6.62-77.72-.22s25.71-15.44,29.36-25.14c0,0-11.9,7.5-17.85,7.06,0,0,16.5-13.45,17.46-20.29,.96-6.84,.77,.22,.58,.88-.19,.66-15.54,11.69-22.84,7.5,0,0,23.03-15.88,23.99-23.6,0,0-14.97,10.36-20.34,5.73,0,0,16.69-11.69,17.65-19.85l2.3-12.57s-5.37,7.28-9.98,5.95c0,0,9.21-11.25,9.79-16.76,0,0-8.06,5.51-10.17,0,0,0,10.36-6.62,10.75-11.47,0,0-7.68,5.29-11.13,2.65,0,0,10.17-11.47,11.51-15.88,0,0-4.03,1.76-6.72-1.76,0,0,8.64-1.76,13.24-49.18Z"/>
      <path class="cls-7" d="M315.31,171.86s2.43,26.65,7.29,31.3c4.86,4.65,3.44,3.41,3.44,3.41,0,0-3.75,1.86-6.18-.93-2.43-2.79,2.23,8.37,4.96,10.54,2.73,2.17,3.75,3.41,3.75,3.41l-9.82-2.79s4.45,15.34,9.41,17.66c0,0-7.79,1.08-9.31-3.72,0,0,6.58,16.42,11.14,19.06,0,0-6.99,2.17-9.01-3.1,0,0,7.59,17.66,11.54,18.75,0,0-10.22-2.32-12.05-7.13-1.82-4.8,.81,19.52,11.44,26.19l4.56,4.65-41-.15s13.57-10.85,15.49-17.66c0,0-6.28,5.27-9.41,4.96,0,0,8.71-9.45,9.21-14.26,.51-4.8,.4,.15,.3,.62-.1,.46-8.2,8.21-12.05,5.27,0,0,12.15-11.16,12.65-16.58,0,0-7.9,7.28-10.73,4.03,0,0,8.81-8.21,9.31-13.95l1.21-8.83s-2.83,5.11-5.26,4.18c0,0,4.86-7.9,5.16-11.78,0,0-4.25,3.87-5.37,0,0,0,5.47-4.65,5.67-8.06,0,0-4.05,3.72-5.87,1.86,0,0,5.37-8.06,6.07-11.16,0,0-2.13,1.24-3.54-1.24,0,0,4.56-1.24,6.99-34.55Z"/>
      <path class="cls-7" d="M416.44,326.2c.24,2.67-1.36,5.47-4.8,5.36-26.96-.88-53.92-1.76-80.88-2.64-9.69-.32-20.41,.39-28.56-5.79-7.06-5.37-11.27-14.14-14.32-22.27-3.01-8-2.71-18.36,5.81-22.84,4.41-2.33,10.05-2.1,14.9-2.22,4.61-.12,9.2,.02,13.77,.73,10.24,1.6,17.37,9.05,27.37,10.89,4.73,.87,9.83,1.42,14.06,3.93,1.39,.83,2.72,1.97,3.59,3.35,.7,1.11,.87,4.46,1.28,4.93,.83,.96,5.93-.54,7.36-.63,2.05-.13,4.08,.02,6.03,.69,4.12,1.42,6.59,4.89,9.63,7.74,6.46,6.05,16.33,6.35,23.52,11.4,2.73,1.92,2.67,5.2,1.24,7.37Z"/>
      <path class="cls-7" d="M508.94,285.96c-5.87,.37-12.06,1.39-16.53,5.21-1.98,1.69-3.59,3.91-5.95,5.02-1.26,.59-2.67,.84-3.86,1.56-2.85,1.73-3.66,5.67-6.42,7.54-1.38,.94-3.09,1.24-4.74,1.52-5.3,.9-10.61,1.79-15.91,2.69-3.11,.53-6.27,1.07-9.12,2.43s-5.39,3.68-6.29,6.71c-.11,.36-.19,.75-.12,1.12,.1,.51,.47,.91,.87,1.25,2.82,2.4,6.93,2.26,10.62,2,6.08-.43,12.16-.86,18.24-1.29,3.34-.24,6.7-.47,9.96-1.23,3.3-.77,6.52-2.08,9.91-2.13,2.84-.04,5.6,.79,8.39,1.35,2.45,.49,4.95,.76,7.45,.81,2.4,.05,5.06-.22,6.72-1.96,.75-.78,1.21-1.79,1.66-2.78,3.52-7.72,7.05-15.48,9.43-23.63,.86-2.94,1.2-5.93-2.3-6.25-3.95-.36-8.05-.18-12.01,.07Z"/>
    </g>
    <path class="cls-2" d="M412.44,8c5.91,0,11.81,1.85,16.8,5.54l123.56,91.41,11.97,8.86c9.89,7.33,13.91,20.22,9.89,31.85l-56.25,163.32c-3.92,11.39-14.64,19.03-26.68,19.03l-170.63-.02c-12.43,0-23.38-8.14-26.98-20.02l-49.35-162.58c-3.51-11.55,.74-24.05,10.54-31.11l12.98-9.32L396,13.29c4.92-3.53,10.68-5.29,16.43-5.29m0-8h0c-7.62,0-14.91,2.35-21.1,6.79l-127.71,91.67-12.98,9.32c-12.59,9.07-18.03,25.11-13.53,39.93l49.35,162.58c2.27,7.48,6.78,13.9,13.07,18.56,6.29,4.67,13.74,7.13,21.57,7.13l170.63,.02c15.46,0,29.22-9.81,34.25-24.42l56.24-163.31c5.17-14.99,.07-31.42-12.69-40.88l-11.97-8.86L433.99,7.11c-6.29-4.65-13.74-7.11-21.55-7.11h0Z"/>
  </g>
</svg>